<svg xmlns="http://www.w3.org/2000/svg" width="805" height="600"><rect width="805" height="600" x="0" y="0" fill="#FFFFFF" id="backgorund"/><g id="viz"><clipPath id="serieClipPath"><rect x="-50" y="-10" width="805" height="600"/></clipPath><g transform="translate(0,0)"><g transform="translate(50,10)" clip-path="url(#serieClipPath)"><g id="axis"><g transform="translate(0,570)" fill="none" font-size="10" font-family="sans-serif" text-anchor="middle"><path class="domain" stroke="currentColor" d="M0,6V0H740V6"/><g class="tick" opacity="1" transform="translate(0,0)"><line stroke="currentColor" y2="6"/><text fill="currentColor" y="9" dy="0.71em">Mon 21</text></g><g class="tick" opacity="1" transform="translate(47.74193548387097,0)"><line stroke="currentColor" y2="6"/><text fill="currentColor" y="9" dy="0.71em">Wed 23</text></g><g class="tick" opacity="1" transform="translate(95.48387096774194,0)"><line stroke="currentColor" y2="6"/><text fill="currentColor" y="9" dy="0.71em">Fri 25</text></g><g class="tick" opacity="1" transform="translate(143.2258064516129,0)"><line stroke="currentColor" y2="6"/><text fill="currentColor" y="9" dy="0.71em">Mar 27</text></g><g class="tick" opacity="1" transform="translate(190.96774193548387,0)"><line stroke="currentColor" y2="6"/><text fill="currentColor" y="9" dy="0.71em">Tue 29</text></g><g class="tick" opacity="1" transform="translate(238.70967741935482,0)"><line stroke="currentColor" y2="6"/><text fill="currentColor" y="9" dy="0.71em">Thu 31</text></g><g class="tick" opacity="1" transform="translate(262.58064516129036,0)"><line stroke="currentColor" y2="6"/><text fill="currentColor" y="9" dy="0.71em">April</text></g><g class="tick" opacity="1" transform="translate(310.3225806451613,0)"><line stroke="currentColor" y2="6"/><text fill="currentColor" y="9" dy="0.71em">Apr 03</text></g><g class="tick" opacity="1" transform="translate(358.06451612903226,0)"><line stroke="currentColor" y2="6"/><text fill="currentColor" y="9" dy="0.71em">Tue 05</text></g><g class="tick" opacity="1" transform="translate(405.8064516129032,0)"><line stroke="currentColor" y2="6"/><text fill="currentColor" y="9" dy="0.71em">Thu 07</text></g><g class="tick" opacity="1" transform="translate(453.5483870967742,0)"><line stroke="currentColor" y2="6"/><text fill="currentColor" y="9" dy="0.71em">Sat 09</text></g><g class="tick" opacity="1" transform="translate(501.2903225806451,0)"><line stroke="currentColor" y2="6"/><text fill="currentColor" y="9" dy="0.71em">Mon 11</text></g><g class="tick" opacity="1" transform="translate(549.0322580645161,0)"><line stroke="currentColor" y2="6"/><text fill="currentColor" y="9" dy="0.71em">Wed 13</text></g><g class="tick" opacity="1" transform="translate(596.7741935483871,0)"><line stroke="currentColor" y2="6"/><text fill="currentColor" y="9" dy="0.71em">Fri 15</text></g><g class="tick" opacity="1" transform="translate(644.516129032258,0)"><line stroke="currentColor" y2="6"/><text fill="currentColor" y="9" dy="0.71em">Apr 17</text></g><g class="tick" opacity="1" transform="translate(692.258064516129,0)"><line stroke="currentColor" y2="6"/><text fill="currentColor" y="9" dy="0.71em">Tue 19</text></g><g class="tick" opacity="1" transform="translate(740,0)"><line stroke="currentColor" y2="6"/><text fill="currentColor" y="9" dy="0.71em">Thu 21</text></g><text x="740" dy="-5" text-anchor="end" style="font-family: Arial, sans-serif; font-size: 12px; fill: rgb(123, 123, 123); font-weight: bold;">日期</text></g><g transform="translate(0,0)" fill="none" font-size="10" font-family="sans-serif" text-anchor="end"><path class="domain" stroke="currentColor" d="M0,570V0"/><g class="tick" opacity="1" transform="translate(0,570)"><line stroke="currentColor" x2="-6"/><text fill="currentColor" x="-9" dy="0.32em">555</text></g><g class="tick" opacity="1" transform="translate(0,506.66666666666663)"><line stroke="currentColor" x2="-6"/><text fill="currentColor" x="-9" dy="0.32em">560</text></g><g class="tick" opacity="1" transform="translate(0,443.3333333333333)"><line stroke="currentColor" x2="-6"/><text fill="currentColor" x="-9" dy="0.32em">565</text></g><g class="tick" opacity="1" transform="translate(0,380.00000000000006)"><line stroke="currentColor" x2="-6"/><text fill="currentColor" x="-9" dy="0.32em">570</text></g><g class="tick" opacity="1" transform="translate(0,316.6666666666667)"><line stroke="currentColor" x2="-6"/><text fill="currentColor" x="-9" dy="0.32em">575</text></g><g class="tick" opacity="1" transform="translate(0,253.33333333333331)"><line stroke="currentColor" x2="-6"/><text fill="currentColor" x="-9" dy="0.32em">580</text></g><g class="tick" opacity="1" transform="translate(0,190.00000000000003)"><line stroke="currentColor" x2="-6"/><text fill="currentColor" x="-9" dy="0.32em">585</text></g><g class="tick" opacity="1" transform="translate(0,126.66666666666666)"><line stroke="currentColor" x2="-6"/><text fill="currentColor" x="-9" dy="0.32em">590</text></g><g class="tick" opacity="1" transform="translate(0,63.333333333333364)"><line stroke="currentColor" x2="-6"/><text fill="currentColor" x="-9" dy="0.32em">595</text></g><g class="tick" opacity="1" transform="translate(0,0)"><line stroke="currentColor" x2="-6"/><text fill="currentColor" x="-9" dy="0.32em">600</text></g><text x="4" text-anchor="start" dominant-baseline="hanging" style="font-family: Arial, sans-serif; font-size: 12px; fill: rgb(123, 123, 123); font-weight: bold;">收盤</text></g></g><g id="viz"><g><path d="M0,177.33333333333334C11.935483870967742,177.33333333333334,11.935483870967742,215.33333333333331,23.870967741935484,215.33333333333331C35.806451612903224,215.33333333333331,35.806451612903224,126.66666666666666,47.74193548387097,126.66666666666666C59.677419354838705,126.66666666666666,59.677419354838705,113.99999999999997,71.61290322580645,113.99999999999997C83.54838709677419,113.99999999999997,83.54838709677419,25.333333333333307,95.48387096774194,25.333333333333307C131.29032258064515,25.333333333333307,131.29032258064515,202.66666666666663,167.09677419354838,202.66666666666663C179.03225806451613,202.66666666666663,179.03225806451613,139.33333333333334,190.96774193548387,139.33333333333334C202.90322580645162,139.33333333333334,202.90322580645162,0,214.83870967741936,0C226.77419354838707,0,226.77419354838707,37.99999999999999,238.70967741935482,37.99999999999999C250.6451612903226,37.99999999999999,250.6451612903226,139.33333333333334,262.58064516129036,139.33333333333334C322.258064516129,139.33333333333334,322.258064516129,278.6666666666667,381.93548387096774,278.6666666666667C393.8709677419355,278.6666666666667,393.8709677419355,430.66666666666663,405.8064516129032,430.66666666666663C417.741935483871,430.66666666666663,417.741935483871,418.00000000000006,429.6774193548387,418.00000000000006C465.48387096774195,418.00000000000006,465.48387096774195,532,501.2903225806451,532C513.2258064516129,532,513.2258064516129,544.6666666666667,525.1612903225807,544.6666666666667C537.0967741935484,544.6666666666667,537.0967741935484,342,549.0322580645161,342C560.9677419354839,342,560.9677419354839,342,572.9032258064516,342C584.8387096774193,342,584.8387096774193,481.3333333333333,596.7741935483871,481.3333333333333C632.5806451612902,481.3333333333333,632.5806451612902,494,668.3870967741935,494C680.3225806451612,494,680.3225806451612,443.3333333333333,692.258064516129,443.3333333333333C704.1935483870968,443.3333333333333,704.1935483870968,380.00000000000006,716.1290322580645,380.00000000000006C728.0645161290322,380.00000000000006,728.0645161290322,443.3333333333333,740,443.3333333333333" stroke="#27a2f7" fill="none"/><text font-family="sans-serif" font-size="10" class="labels" x="214.83870967741936" y="0" dx="0" dy="-4" text-anchor="middle"/></g></g></g><text y="4" x="4" style="font-family: Arial, sans-serif; font-size: 12px; fill: black; font-weight: bold; dominant-baseline: hanging;"/></g><g id="grid"><rect x="0" y="0" width="805" height="600" fill="none" stroke="#ccc"/></g></g></svg>